<svg xmlns="http://www.w3.org/2000/svg" viewBox="0 0 512 512"><circle cx="256" cy="277.333" r="106.667"/><path d="M469.333 106.667h-67.656c-8.552 0-16.583-3.333-22.635-9.375l-39-39c-10.073-10.073-23.469-15.625-37.719-15.625h-92.646c-14.25 0-27.646 5.552-37.719 15.625l-39 39c-6.052 6.042-14.083 9.375-22.635 9.375H42.667C19.135 106.667 0 125.802 0 149.333v277.333c0 23.531 19.135 42.667 42.667 42.667h426.667c23.531 0 42.667-19.135 42.667-42.667V149.333c-.001-23.531-19.136-42.666-42.668-42.666zM256 405.333c-70.583 0-128-57.417-128-128s57.417-128 128-128 128 57.417 128 128-57.417 128-128 128zm170.667-192c-11.76 0-21.333-9.573-21.333-21.333s9.573-21.333 21.333-21.333S448 180.24 448 192s-9.573 21.333-21.333 21.333z"/></svg>